<?xml version="1.0" encoding="utf-8"?>
<!-- Generator: Adobe Illustrator 15.0.0, SVG Export Plug-In . SVG Version: 6.00 Build 0)  -->
<!DOCTYPE svg PUBLIC "-//W3C//DTD SVG 1.1//EN" "http://www.w3.org/Graphics/SVG/1.1/DTD/svg11.dtd">
<svg version="1.1" id="Layer_1" xmlns="http://www.w3.org/2000/svg" xmlns:xlink="http://www.w3.org/1999/xlink" x="0px" y="0px"
	 width="50px" height="50px" viewBox="0 0 50 50" enable-background="new 0 0 50 50" xml:space="preserve">
<g>
	<path fill="none" stroke="#ADCE74" stroke-miterlimit="10" d="M25,49.5c13.534,0,24.5-10.971,24.5-24.501S38.534,0.499,25,0.499
		c-13.533,0-24.5,10.969-24.5,24.5C0.5,38.529,11.467,49.5,25,49.5"/>
	<path fill="#ADCE74" d="M39.7,36.783H10.3V14.608h29.4V36.783L39.7,36.783z M13.78,34.73h22.443l-7.387-7.562l-1.396,1.407
		c-0.604,0.604-1.475,0.95-2.38,0.95c-0.005,0-0.012-0.002-0.016-0.002c-0.915-0.004-1.785-0.354-2.388-0.971l-1.421-1.438
		L13.78,34.73L13.78,34.73z M12.352,18.128v15.129l7.44-7.598L12.352,18.128L12.352,18.128z M30.283,25.716l7.367,7.54V18.299
		L30.283,25.716L30.283,25.716z M13.786,16.661l10.331,10.458c0.225,0.229,0.563,0.357,0.931,0.359c0.005,0,0.006,0,0.009,0
		c0.363,0,0.71-0.131,0.925-0.353L36.387,16.66L13.786,16.661L13.786,16.661z"/>
</g>
</svg>
