<?xml version="1.0" encoding="utf-8"?>
<!-- Generator: Adobe Illustrator 15.0.0, SVG Export Plug-In . SVG Version: 6.00 Build 0)  -->
<!DOCTYPE svg PUBLIC "-//W3C//DTD SVG 1.1//EN" "http://www.w3.org/Graphics/SVG/1.1/DTD/svg11.dtd">
<svg version="1.1" id="Layer_1" xmlns="http://www.w3.org/2000/svg" xmlns:xlink="http://www.w3.org/1999/xlink" x="0px" y="0px"
	 width="50px" height="50px" viewBox="0 0 50 50" enable-background="new 0 0 50 50" xml:space="preserve">
<g>
	<path opacity="0.5" fill="none" stroke="#FFFFFF" stroke-width="2" stroke-miterlimit="10" d="M24.69,49.094
		c13.254,0,24-10.746,24-24s-10.746-24-24-24c-13.255,0-24,10.746-24,24S11.436,49.094,24.69,49.094"/>
	<path fill="#FFFFFF" d="M18.9,21.03h2.48v-2.413c0-1.062,0.027-2.701,0.799-3.718c0.814-1.076,1.933-1.806,3.853-1.806
		c3.131,0,4.448,0.446,4.448,0.446l-0.619,3.675c0,0-1.035-0.298-2.001-0.298c-0.965,0-1.828,0.345-1.828,1.311v2.803h3.957
		l-0.277,3.589h-3.68v12.475h-4.651V24.619H18.9V21.03z"/>
</g>
</svg>
