<?xml version="1.0" encoding="utf-8"?>
<!-- Generator: Adobe Illustrator 15.0.0, SVG Export Plug-In . SVG Version: 6.00 Build 0)  -->
<!DOCTYPE svg PUBLIC "-//W3C//DTD SVG 1.1//EN" "http://www.w3.org/Graphics/SVG/1.1/DTD/svg11.dtd">
<svg version="1.1" id="Layer_1" xmlns="http://www.w3.org/2000/svg" xmlns:xlink="http://www.w3.org/1999/xlink" x="0px" y="0px"
	 width="50px" height="50px" viewBox="0 0 50 50" enable-background="new 0 0 50 50" xml:space="preserve">
<g>
	<path fill="none" stroke="#ADCE74" stroke-miterlimit="10" enable-background="new    " d="M25.28,48.689c13.255,0,24-10.744,24-24
		c0-13.254-10.744-24-24-24c-13.254,0-24,10.746-24,24C1.28,37.945,12.026,48.689,25.28,48.689"/>
	<path fill="#ADCE74" d="M25.282,12.627c-6.628,0-12.001,5.372-12.001,12c0,4.913,2.956,9.135,7.184,10.99
		c-0.033-0.836-0.005-1.844,0.209-2.754c0.231-0.975,1.543-6.54,1.543-6.54s-0.383-0.767-0.383-1.898
		c0-1.778,1.031-3.107,2.314-3.107c1.091,0,1.62,0.821,1.62,1.802c0,1.098-0.701,2.737-1.06,4.258
		c-0.302,1.272,0.637,2.312,1.894,2.312c2.272,0,3.803-2.92,3.803-6.379c0-2.629-1.771-4.598-4.991-4.598
		c-3.639,0-5.907,2.714-5.907,5.746c0,1.045,0.309,1.783,0.792,2.353c0.221,0.265,0.251,0.369,0.171,0.672
		c-0.056,0.218-0.188,0.752-0.244,0.961c-0.08,0.305-0.326,0.412-0.601,0.301c-1.676-0.686-2.458-2.52-2.458-4.583
		c0-3.408,2.875-7.496,8.576-7.496c4.581,0,7.595,3.315,7.595,6.874c0,4.707-2.614,8.225-6.474,8.225
		c-1.295,0-2.513-0.699-2.931-1.496c0,0-0.696,2.766-0.844,3.299c-0.254,0.926-0.752,1.851-1.208,2.57
		c1.077,0.319,2.218,0.492,3.401,0.492c6.625,0,11.998-5.372,11.998-12C37.279,17.999,31.907,12.627,25.282,12.627"/>
</g>
</svg>
