<?xml version="1.0" encoding="utf-8"?>
<!-- Generator: Adobe Illustrator 15.0.0, SVG Export Plug-In . SVG Version: 6.00 Build 0)  -->
<!DOCTYPE svg PUBLIC "-//W3C//DTD SVG 1.1//EN" "http://www.w3.org/Graphics/SVG/1.1/DTD/svg11.dtd">
<svg version="1.1" id="Layer_1" xmlns="http://www.w3.org/2000/svg" xmlns:xlink="http://www.w3.org/1999/xlink" x="0px" y="0px"
	 width="100px" height="100px" viewBox="0 0 100 100" enable-background="new 0 0 100 100" xml:space="preserve">
<g id="Your_Icon">
	<path fill="#333333" d="M49.792,98.91C22.855,98.91,0.94,76.997,0.94,50.06c0-26.936,21.915-48.852,48.852-48.852
		c26.933,0,48.849,21.916,48.849,48.852C98.643,76.997,76.727,98.91,49.792,98.91z M49.792,12.77
		C29.228,12.77,12.5,29.497,12.5,50.061c0,20.562,16.728,37.291,37.292,37.291c20.562,0,37.29-16.729,37.29-37.291
		C87.082,29.497,70.354,12.77,49.792,12.77z"/>
	<g>
		<ellipse fill="#333333" cx="37.961" cy="36.526" rx="6.873" ry="9.282"/>
		<path fill="#333333" d="M68.492,36.526c0,5.125-3.076,9.282-6.874,9.282c-3.793,0-6.868-4.157-6.868-9.282s3.075-9.28,6.868-9.28
			C65.416,27.247,68.492,31.401,68.492,36.526z"/>
	</g>
	<path fill="#333333" d="M49.755,76.921c-15.869,0-22.736-11.05-23.021-11.521c-1.616-2.672-0.761-6.146,1.911-7.764
		c2.647-1.599,6.093-0.775,7.725,1.853c0.237,0.364,4.172,6.129,13.386,6.129c9.365,0,13.424-6.075,13.462-6.14
		c1.654-2.646,5.146-3.451,7.788-1.799c2.648,1.656,3.452,5.145,1.799,7.79C72.512,65.936,65.471,76.921,49.755,76.921z"/>
</g>
</svg>
