<?xml version="1.0" encoding="utf-8"?>
<!-- Generator: Adobe Illustrator 15.0.0, SVG Export Plug-In . SVG Version: 6.00 Build 0)  -->
<!DOCTYPE svg PUBLIC "-//W3C//DTD SVG 1.1//EN" "http://www.w3.org/Graphics/SVG/1.1/DTD/svg11.dtd">
<svg version="1.1" id="Layer_1" xmlns="http://www.w3.org/2000/svg" xmlns:xlink="http://www.w3.org/1999/xlink" x="0px" y="0px"
	 width="50px" height="50px" viewBox="0 0 50 50" enable-background="new 0 0 50 50" xml:space="preserve">
<g>
	<path fill="none" stroke="#ADCE74" stroke-miterlimit="10" enable-background="new    " d="M25,49c13.256,0,24-10.744,24-24
		C49,11.746,38.256,1,25,1C11.746,1,1,11.746,1,25C1,38.256,11.746,49,25,49"/>
	<path fill="#ADCE74" d="M37.041,18.713c-0.885,0.392-1.836,0.657-2.832,0.776c1.02-0.61,1.801-1.577,2.168-2.729
		c-0.953,0.564-2.008,0.975-3.134,1.195c-0.897-0.959-2.179-1.558-3.599-1.558c-2.725,0-4.933,2.209-4.933,4.933
		c0,0.387,0.041,0.762,0.128,1.124c-4.099-0.207-7.733-2.168-10.168-5.154c-0.424,0.732-0.667,1.579-0.667,2.482
		c0,1.709,0.871,3.219,2.193,4.104c-0.807-0.024-1.568-0.249-2.234-0.615v0.06c0,2.391,1.7,4.383,3.957,4.834
		c-0.413,0.117-0.849,0.175-1.3,0.175c-0.317,0-0.625-0.028-0.927-0.086c0.626,1.959,2.448,3.384,4.606,3.423
		c-1.688,1.322-3.816,2.11-6.124,2.11c-0.398,0-0.791-0.021-1.178-0.067c2.182,1.397,4.777,2.217,7.56,2.217
		c9.074,0,14.033-7.517,14.033-14.035c0-0.214-0.004-0.427-0.012-0.638C35.545,20.57,36.381,19.701,37.041,18.713"/>
</g>
</svg>
